<svg id="Layer_1" data-name="Layer 1" xmlns="http://www.w3.org/2000/svg" xmlns:xlink="http://www.w3.org/1999/xlink" viewBox="0 0 512 512"><defs><linearGradient id="linear-gradient" x1="256" y1="431" x2="256" y2="81" gradientUnits="userSpaceOnUse"><stop offset="0" stop-color="#231f20"/><stop offset="1" stop-color="#58595b"/></linearGradient></defs><title>coffee</title><path d="M419.1,176A419,419,0,0,1,399,259.72a50.36,50.36,0,0,0,23.88,5.93c26.65,0,48.28-20.11,48.28-44.87s-21.62-44.87-48.28-44.87c-1.31,0-2.56.07-3.83.14Zm24,235.07C426.45,423.3,402.3,431,375.53,431H80.23c-26.74,0-50.85-7.69-67.61-19.88-27.09-19.81-6.6-28.17,24-28.17H415.81c28.42,0,59,5,27.32,28.17Zm-318.31-47.2C79,315.74,47.07,237.39,40.49,146.9,37,99.17,61.59,81,87.59,81h287.2c25.24,0,46.06,11.25,47.64,50.22h.49c49.19,0,89.08,40.09,89.08,89.55s-39.88,89.55-89.08,89.55a88,88,0,0,1-41.17-10.14c-12.45,24.66-27.25,46.18-44,63.73Z" fill-rule="evenodd" fill="url(#linear-gradient)"/></svg>